<?xml version="1.0" encoding="UTF-8"?>
<svg xmlns="http://www.w3.org/2000/svg" xmlns:xlink="http://www.w3.org/1999/xlink" width="30pt" height="30pt" viewBox="0 0 30 30" version="1.1">
<g id="surface1">
<path style=" stroke:none;fill-rule:nonzero;fill:#1D9BF0;fill-opacity:1;" d="M 5.921875 3.949219 C 4.832031 3.949219 3.949219 4.832031 3.949219 5.921875 L 3.949219 8.882813 C 3.949219 9.425781 4.390625 9.867188 4.933594 9.867188 L 24.671875 9.867188 C 25.214844 9.867188 25.65625 9.425781 25.65625 8.882813 L 25.65625 5.921875 C 25.65625 4.832031 24.773438 3.949219 23.683594 3.949219 Z M 4.933594 11.84375 C 4.390625 11.84375 3.949219 12.285156 3.949219 12.828125 L 3.949219 16.777344 C 3.949219 17.320313 4.390625 17.761719 4.933594 17.761719 L 24.671875 17.761719 C 25.214844 17.761719 25.65625 17.320313 25.65625 16.777344 L 25.65625 12.828125 C 25.65625 12.285156 25.214844 11.84375 24.671875 11.84375 Z M 4.933594 19.738281 C 4.390625 19.738281 3.949219 20.179688 3.949219 20.722656 L 3.949219 23.683594 C 3.949219 24.773438 4.832031 25.65625 5.921875 25.65625 L 23.683594 25.65625 C 24.773438 25.65625 25.65625 24.773438 25.65625 23.683594 L 25.65625 20.722656 C 25.65625 20.179688 25.214844 19.738281 24.671875 19.738281 Z "/>
</g>
</svg>
