<?xml version="1.0" encoding="UTF-8"?>
<svg xmlns="http://www.w3.org/2000/svg" xmlns:xlink="http://www.w3.org/1999/xlink" width="50pt" height="50pt" viewBox="0 0 50 50" version="1.1">
<g id="surface1">
<path style=" stroke:none;fill-rule:nonzero;fill:#1D9BF0;fill-opacity:1;" d="M 15.871094 0 L 15.871094 11.90625 L 33.730469 11.90625 L 33.730469 0 Z M 23.808594 13.890625 L 23.808594 21.824219 L 5.953125 21.824219 L 5.953125 32.738281 L 7.9375 32.738281 L 7.9375 23.808594 L 23.808594 23.808594 L 23.808594 32.738281 L 25.792969 32.738281 L 25.792969 23.808594 L 41.667969 23.808594 L 41.667969 32.738281 L 43.652344 32.738281 L 43.652344 21.824219 L 25.792969 21.824219 L 25.792969 13.890625 Z M 0 34.722656 L 0 46.628906 L 13.890625 46.628906 L 13.890625 34.722656 Z M 17.855469 34.722656 L 17.855469 46.628906 L 31.746094 46.628906 L 31.746094 34.722656 Z M 35.714844 34.722656 L 35.714844 46.628906 L 49.601563 46.628906 L 49.601563 34.722656 Z "/>
</g>
</svg>
