<?xml version="1.0" encoding="UTF-8"?>
<svg xmlns="http://www.w3.org/2000/svg" xmlns:xlink="http://www.w3.org/1999/xlink" width="30pt" height="30pt" viewBox="0 0 30 30" version="1.1">
<g id="surface1">
<path style=" stroke:none;fill-rule:nonzero;fill:#1D9BF0;fill-opacity:1;" d="M 14.800781 2.960938 C 14.445313 2.960938 14.101563 2.984375 13.78125 3.011719 C 13.238281 3.058594 12.832031 3.535156 12.878906 4.078125 C 12.925781 4.621094 13.402344 5.023438 13.945313 4.980469 C 14.242188 4.953125 14.527344 4.933594 14.800781 4.933594 C 17.28125 4.933594 19.53125 5.851563 21.261719 7.355469 L 18.75 9.867188 L 24.671875 9.867188 L 24.671875 3.949219 L 22.660156 5.960938 C 20.570313 4.101563 17.816406 2.960938 14.800781 2.960938 Z M 3.949219 4.933594 L 5.960938 6.945313 C 4.101563 9.035156 2.960938 11.789063 2.960938 14.800781 C 2.960938 15.160156 2.984375 15.503906 3.011719 15.824219 C 3.058594 16.367188 3.535156 16.773438 4.078125 16.726563 C 4.621094 16.679688 5.023438 16.203125 4.980469 15.660156 C 4.953125 15.363281 4.933594 15.078125 4.933594 14.800781 C 4.933594 12.324219 5.851563 10.074219 7.355469 8.34375 L 9.867188 10.855469 L 9.867188 4.933594 Z M 25.609375 12.859375 C 25.332031 12.863281 25.0625 12.980469 24.875 13.1875 C 24.691406 13.390625 24.597656 13.667969 24.625 13.945313 C 24.652344 14.242188 24.671875 14.527344 24.671875 14.800781 C 24.671875 17.28125 23.753906 19.53125 22.25 21.261719 L 19.738281 18.75 L 19.738281 24.671875 L 25.65625 24.671875 L 23.644531 22.660156 C 25.503906 20.570313 26.644531 17.816406 26.644531 14.800781 C 26.644531 14.445313 26.621094 14.101563 26.59375 13.78125 C 26.558594 13.261719 26.128906 12.859375 25.609375 12.859375 Z M 4.933594 19.738281 L 4.933594 25.65625 L 6.945313 23.644531 C 9.035156 25.503906 11.789063 26.644531 14.800781 26.644531 C 15.160156 26.644531 15.503906 26.621094 15.824219 26.59375 C 16.367188 26.546875 16.773438 26.070313 16.726563 25.527344 C 16.679688 24.984375 16.203125 24.582031 15.660156 24.625 C 15.363281 24.652344 15.078125 24.671875 14.800781 24.671875 C 12.324219 24.671875 10.074219 23.753906 8.34375 22.25 L 10.855469 19.738281 Z "/>
</g>
</svg>
